<?xml version="1.0" standalone="no"?>
<svg version="1.1" id="downloadSvg" xmlns="http://www.w3.org/2000/svg" xmlns:xlink="http://www.w3.org/1999/xlink" x="0px" y="0px" width="24" height="24" viewBox="0 0 1200 1200" enable-background="new 0 0 1200 1200" xml:space="preserve">
<g>
	<path fill="#575756" d="M1068.79,288.268H310.634c-3.847,0-7.942-0.122-11.953-0.448l-84.064-98.352c0,0-10.888-14.61-40.192-12.77&#10;&#9;&#9;c-18.093,1.148-37.409,0.859-49.689,0.49c-6.383-2.699-13.34-4.174-20.792-4.174C74.229,173.014,50,197.205,50,226.957&#10;&#9;&#9;c0,29.84,24.229,53.985,53.943,53.985c19.484,0,36.345-10.314,45.922-25.62h28.323c0,0,18.256-5.402,38.311,22.02&#10;&#9;&#9;c5.402,7.242,15.142,20.176,26.521,35.033c-0.654,8.185,0.738,18.789,4.501,32.745l206.117,402.078l6.14,8.185l8.755,6.182&#10;&#9;&#9;l13.017,5.323l14.078,2.536h332.993c60.33-0.78,81.776-20.545,81.776-38.474l0.49-6.341l-0.897-6.182l-1.639-4.87l-2.376-4.543&#10;&#9;&#9;l-4.501-4.095l-6.71-2.619l-13.919-2.372h-356.32c0,0-17.192,3.562-26.278-18.378l-23.738-49.4&#10;&#9;&#9;c0-11.421,38.474-12.812,50.016-12.812H948.46l6.303-0.612l6.303-0.696l7.121-1.35l7.204-3.152l4.422-3.194l2.783-3.479&#10;&#9;&#9;l3.273-5.323l2.619-4.091l143.414-252.323C1173.156,288.268,1140.415,286.672,1068.79,288.268z" style="fill: rgb(255, 255, 255);"/>
	<path fill="#575756" d="M793.508,830.081c-54.517,0-98.477,43.998-98.477,98.473c0,54.392,43.96,98.431,98.477,98.431&#10;&#9;&#9;c54.35,0,98.473-44.04,98.473-98.431C891.981,874.079,847.857,830.081,793.508,830.081z" style="fill: rgb(255, 255, 255);"/>
	<path fill="#575756" d="M565.044,830.081c-54.27,0-98.394,43.998-98.394,98.473c0,54.392,44.124,98.431,98.394,98.431&#10;&#9;&#9;c54.517,0,98.553-44.04,98.553-98.431C663.597,874.079,619.562,830.081,565.044,830.081z" style="fill: rgb(255, 255, 255);"/>
</g>
</svg>